<?xml version="1.0" standalone="no"?>
<!DOCTYPE svg PUBLIC "-//W3C//DTD SVG 20010904//EN"
 "http://www.w3.org/TR/2001/REC-SVG-20010904/DTD/svg10.dtd">
<svg version="1.0" xmlns="http://www.w3.org/2000/svg"
 width="420.000000pt" height="768.000000pt" viewBox="0 0 420.000000 768.000000"
 preserveAspectRatio="xMidYMid meet">
<metadata>
Created by potrace 1.10, written by Peter Selinger 2001-2011
</metadata>
<g transform="translate(0.000000,768.000000) scale(0.100000,-0.100000)"
fill="#ffffff" stroke="none">
<path d="M1915 7608 c-4 -40 -6 -86 -4 -103 2 -16 3 -70 3 -120 0 -82 -2 -94
-27 -129 -15 -21 -27 -45 -27 -52 0 -8 -16 -31 -35 -52 -19 -21 -43 -59 -54
-85 -15 -35 -29 -50 -56 -61 -19 -8 -60 -39 -91 -68 -55 -52 -57 -53 -118 -53
-48 0 -68 5 -94 24 -38 27 -77 24 -154 -11 -40 -18 -54 -33 -87 -88 -43 -72
-55 -84 -104 -109 -25 -12 -41 -35 -73 -101 -66 -134 -77 -178 -72 -283 4 -86
7 -97 47 -172 93 -171 308 -470 371 -515 41 -29 85 -105 110 -190 32 -110 38
-119 105 -149 61 -28 128 -94 171 -168 11 -18 32 -49 47 -71 23 -32 26 -43 18
-65 -6 -14 -19 -31 -31 -37 -11 -6 -20 -20 -20 -32 0 -17 4 -19 23 -13 12 4
37 9 55 12 30 5 32 8 32 44 0 22 -9 57 -20 79 -24 46 -26 87 -6 109 8 9 18 39
23 66 7 41 12 51 31 53 16 2 25 -3 31 -21 8 -21 18 -25 70 -31 33 -4 63 -11
65 -15 3 -4 27 -16 53 -26 72 -27 83 -40 83 -99 0 -62 -16 -94 -55 -116 -43
-24 -45 -61 -5 -90 41 -29 52 -59 39 -105 -7 -26 -21 -43 -46 -57 l-35 -21 23
-17 22 -18 -21 -11 c-17 -9 -42 -8 -109 4 -49 8 -123 15 -165 15 -50 0 -81 4
-87 13 -6 6 -25 30 -44 52 -18 22 -37 48 -40 58 -7 20 17 87 36 99 6 4 9 9 7
12 -3 2 -23 -8 -44 -22 -30 -21 -44 -41 -61 -85 -12 -32 -34 -70 -49 -84 -15
-14 -25 -31 -22 -38 2 -7 -20 -37 -51 -66 -71 -68 -78 -86 -53 -149 11 -27 24
-57 29 -67 5 -10 23 -50 39 -90 17 -39 49 -97 73 -128 23 -31 49 -79 57 -108
18 -61 28 -223 14 -240 -5 -7 -12 -23 -16 -37 -6 -26 -58 -86 -97 -114 -13 -9
-40 -16 -60 -16 -29 0 -49 -10 -94 -47 l-57 -47 7 -51 c16 -115 0 -173 -66
-234 -30 -28 -49 -54 -49 -68 0 -12 -5 -25 -10 -28 -6 -4 -28 -30 -50 -59 -23
-33 -66 -72 -110 -100 -39 -26 -115 -91 -169 -144 -85 -84 -99 -103 -106 -140
-9 -56 -42 -82 -104 -82 -43 0 -51 -4 -92 -47 -25 -27 -58 -68 -75 -93 -39
-59 -102 -120 -125 -120 -25 0 -143 -123 -181 -188 -16 -29 -39 -57 -49 -63
-11 -5 -32 -28 -48 -49 -27 -38 -29 -45 -28 -142 0 -63 5 -115 13 -135 9 -20
14 -72 14 -135 0 -57 5 -119 10 -138 5 -19 15 -60 23 -91 19 -72 31 -94 86
-155 25 -27 72 -88 103 -135 31 -46 76 -107 100 -135 24 -27 51 -66 62 -85 10
-18 54 -63 98 -99 44 -36 86 -76 95 -90 8 -14 56 -49 106 -79 143 -84 161 -97
235 -160 73 -63 111 -83 177 -95 24 -5 53 -20 72 -39 33 -31 33 -32 33 -125
l0 -95 35 -33 c19 -18 64 -47 100 -65 36 -17 70 -38 76 -45 18 -21 1184 -21
1192 1 8 18 73 60 110 69 15 3 45 25 67 47 37 38 40 46 40 97 0 62 23 135 53
169 25 28 94 60 160 74 39 9 81 32 167 94 145 102 275 210 324 270 21 25 58
60 82 77 24 17 61 56 81 87 21 31 60 81 88 111 61 68 165 248 252 435 8 17 17
50 20 75 3 25 10 50 15 57 8 10 14 64 20 178 1 17 -9 53 -21 80 -12 28 -29 66
-37 85 -27 62 -35 76 -63 106 -15 16 -41 49 -58 74 -17 25 -68 81 -113 125
-45 44 -94 99 -109 122 -14 23 -52 62 -82 85 -147 113 -195 157 -287 266 -109
127 -197 215 -281 280 -52 41 -161 169 -161 191 0 6 -13 20 -29 32 -41 30 -45
56 -15 107 27 46 27 74 -4 135 -22 45 -80 97 -108 97 -13 0 -33 9 -44 20 -12
12 -33 20 -53 20 -18 0 -38 5 -44 11 -6 6 -26 14 -44 18 -28 6 -35 13 -44 46
-5 22 -15 49 -22 61 -8 14 -10 52 -6 120 7 120 27 169 111 267 32 38 80 107
107 155 42 74 49 95 48 139 -1 89 -67 188 -154 231 -32 16 -66 65 -84 123 -10
29 -33 48 -61 49 -32 0 -34 -9 -7 -36 16 -17 23 -33 21 -52 -3 -26 -5 -27 -55
-25 -58 3 -63 -4 -39 -49 13 -24 12 -27 -8 -32 -37 -10 -122 -6 -134 6 -18 18
-15 41 18 111 16 36 30 70 30 75 0 5 7 15 15 22 12 10 22 9 49 -4 45 -21 46
-21 46 15 0 22 -5 32 -20 36 -16 4 -20 14 -20 45 0 47 8 62 72 147 46 61 104
111 128 111 19 0 97 58 118 88 12 17 21 50 24 89 5 68 14 82 157 228 32 33 73
80 92 105 18 25 48 62 67 83 18 21 41 57 51 80 40 94 64 145 97 212 42 85 53
174 34 297 -25 166 -84 267 -215 366 -33 25 -69 55 -80 67 -34 35 -91 65 -123
65 -20 0 -44 -12 -72 -35 -34 -28 -50 -35 -86 -35 -40 0 -49 5 -110 63 -36 34
-71 76 -78 92 -7 17 -31 51 -52 77 -105 125 -135 202 -153 399 -5 48 -17 105
-27 128 l-19 40 -151 1 -151 0 -8 -72z m245 -27 c0 -5 -17 -13 -37 -18 -44
-10 -54 -35 -27 -64 15 -17 16 -24 6 -52 -7 -18 -15 -55 -18 -82 -4 -28 -11
-57 -15 -66 -8 -16 6 -42 53 -93 29 -32 23 -73 -17 -113 l-35 -35 -93 7 c-50
4 -95 10 -99 14 -4 3 10 27 32 51 22 25 48 65 57 90 9 25 26 56 38 70 19 21
24 41 28 115 5 82 19 139 40 173 9 14 87 17 87 3z m150 -454 c0 -13 -6 -32
-14 -42 -12 -17 -14 -16 -18 18 -4 41 -2 47 19 47 7 0 13 -10 13 -23z m-105
-22 c0 -14 -8 -21 -27 -23 -24 -3 -28 0 -28 23 0 23 4 26 28 23 19 -2 27 -9
27 -23z m119 -136 c5 -32 11 -39 41 -49 22 -7 55 -9 85 -5 57 8 77 1 59 -21
-6 -8 -29 -14 -50 -14 -43 0 -49 -10 -20 -37 10 -10 26 -33 35 -50 19 -38 45
-42 102 -18 48 20 159 31 168 16 14 -22 36 -11 53 26 10 21 30 44 45 53 36 20
56 8 135 -85 94 -110 122 -154 143 -223 35 -112 22 -206 -56 -415 -8 -20 -14
-52 -14 -70 -1 -45 -15 -66 -126 -188 -62 -68 -102 -105 -108 -99 -6 6 -1 36
12 82 12 40 22 83 22 94 0 34 48 212 72 262 18 41 20 58 14 138 -5 71 -3 94 7
103 8 6 18 7 22 3 5 -4 -1 7 -13 24 -12 18 -37 45 -55 61 -18 16 -39 44 -47
63 -22 55 -49 87 -90 105 -35 16 -39 16 -76 -4 -21 -12 -53 -21 -71 -21 -32 0
-46 -21 -24 -34 5 -4 28 -34 52 -68 l42 -62 -6 -101 c-5 -82 -12 -117 -40
-190 -19 -50 -43 -115 -52 -145 -9 -30 -31 -86 -50 -125 -18 -38 -40 -87 -49
-107 -26 -59 -36 -55 -36 14 0 44 5 71 18 88 11 17 17 46 18 90 1 36 7 86 14
113 11 37 11 50 1 60 -9 9 -14 9 -20 -2 -13 -21 -43 -5 -112 59 -44 40 -72 60
-90 60 -33 0 -72 41 -67 72 2 19 10 24 48 28 59 7 143 52 224 121 11 9 -29 75
-50 83 -37 14 -68 5 -100 -29 -26 -29 -39 -35 -73 -35 -83 0 -59 59 27 68 41
3 52 9 61 29 6 13 9 29 6 34 -18 28 -155 -22 -179 -66 -6 -11 -17 -24 -24 -30
-25 -20 -49 -115 -50 -193 -1 -81 12 -152 28 -152 31 0 -33 -88 -87 -120 -42
-25 -40 -51 5 -62 54 -14 32 -48 -31 -48 -21 0 -46 -4 -55 -9 -11 -6 -39 -3
-79 7 l-62 16 -16 58 c-18 66 -55 116 -75 103 -9 -6 -11 -24 -6 -70 5 -54 4
-64 -14 -80 -26 -23 -25 -47 4 -130 16 -45 35 -79 59 -101 24 -23 37 -46 42
-74 4 -22 11 -43 17 -46 5 -4 29 15 52 42 50 56 69 55 87 -7 15 -48 28 -56 71
-38 27 11 32 10 45 -7 42 -57 -12 -83 -174 -83 l-113 -1 -6 28 c-4 15 -19 45
-33 67 -15 22 -37 65 -50 95 -13 30 -27 59 -32 65 -5 5 -9 15 -9 23 0 7 -15
46 -34 85 -31 66 -66 166 -66 189 0 5 -16 43 -37 84 -39 82 -55 83 -46 3 5
-40 3 -48 -15 -58 -28 -15 -63 -90 -55 -119 6 -25 -21 -54 -44 -45 -22 9 -43
-17 -43 -52 0 -19 16 -63 36 -102 70 -133 95 -324 27 -204 -32 57 -129 190
-167 231 -63 67 -88 109 -101 172 -7 35 -30 113 -50 173 -33 99 -37 118 -32
185 8 129 33 182 142 309 28 32 60 70 72 85 14 17 31 26 50 26 31 0 73 -31 73
-54 0 -21 28 -39 47 -31 10 4 38 7 63 6 35 -2 50 -8 65 -28 20 -25 21 -25 59
-9 21 9 47 16 57 16 10 0 30 16 45 35 15 20 35 40 45 46 18 9 184 25 407 37
122 8 143 18 116 56 -15 22 -18 63 -7 91 5 15 8 15 24 -6 9 -13 20 -40 23 -60z
m-589 -69 c3 -5 -3 -10 -15 -10 -12 0 -18 5 -15 10 3 6 10 10 15 10 5 0 12 -4
15 -10z m645 -334 c0 -13 -29 -31 -37 -22 -4 4 25 36 33 36 2 0 4 -6 4 -14z
m-80 -291 c7 -9 11 -17 9 -19 -7 -7 -49 13 -49 24 0 15 26 12 40 -5z m-760
-137 c0 -9 7 -23 15 -32 15 -15 22 -96 8 -96 -4 0 -26 7 -50 16 -38 15 -42 20
-41 48 0 17 -1 36 -2 41 -2 6 2 23 8 38 7 16 12 36 12 45 0 23 49 -36 50 -60z
m1136 -303 c8 -19 -12 -44 -44 -56 -36 -14 -26 -50 21 -72 43 -21 49 -50 15
-69 -23 -12 -170 -14 -189 -2 -17 10 41 97 104 157 64 59 83 68 93 42z m-1107
-69 c37 -20 111 -101 111 -124 0 -10 7 -27 15 -38 15 -19 15 -19 30 0 14 18
16 18 50 -13 33 -28 41 -31 106 -31 77 0 129 -19 129 -48 -1 -9 -9 -35 -20
-57 -11 -22 -19 -48 -20 -57 0 -23 -50 -48 -97 -48 -21 0 -55 -5 -77 -11 -56
-15 -78 -6 -105 46 -13 25 -28 45 -32 45 -5 0 -18 -18 -29 -40 -23 -45 -49
-52 -89 -24 -24 17 -24 20 -4 134 9 49 21 54 86 35 23 -6 27 -4 27 12 0 21
-95 93 -122 93 -24 0 -30 28 -11 56 9 14 16 38 15 55 -1 33 0 34 37 15z m896
-251 c-16 -14 -47 -30 -68 -36 -47 -12 -76 -40 -84 -80 -4 -20 -14 -34 -30
-40 -27 -10 -36 -7 -71 25 -22 20 -24 20 -53 3 -57 -32 -72 -16 -48 52 12 33
26 40 35 16 10 -24 33 -17 46 13 27 64 59 75 151 51 33 -8 49 -7 77 5 19 8 44
15 55 15 17 0 16 -3 -10 -24z m185 7 c0 -10 -6 -27 -14 -37 -12 -17 -12 -21 5
-33 30 -21 25 -67 -10 -91 -16 -12 -39 -21 -51 -21 -19 0 -21 4 -15 28 3 15
14 35 22 45 31 34 5 27 -68 -18 -79 -48 -96 -53 -105 -30 -8 20 13 45 37 45
10 0 33 19 51 41 60 75 148 117 148 71z m-210 -265 c0 -13 -9 -41 -19 -63 -16
-32 -21 -36 -26 -21 -4 10 -5 32 -1 49 11 53 46 80 46 35z m-120 -211 c0 -8
-4 -18 -10 -21 -5 -3 -10 3 -10 14 0 12 5 21 10 21 6 0 10 -6 10 -14z m-645
-376 c32 -35 109 -79 159 -90 27 -6 92 -15 146 -20 116 -11 130 -16 130 -45 0
-38 -34 -58 -128 -72 -48 -7 -107 -17 -132 -22 -88 -19 -130 -14 -218 29 -45
22 -91 40 -101 40 -21 0 -54 38 -45 52 3 4 14 8 24 8 11 0 25 7 32 15 7 8 25
28 41 45 15 16 27 36 27 43 0 16 20 37 35 37 7 0 20 -9 30 -20z m848 -179 c-7
-28 -40 -54 -57 -48 -21 8 -12 28 22 49 36 22 41 22 35 -1z m-571 -275 c31
-14 58 -32 62 -41 11 -29 7 -58 -11 -77 -15 -17 -15 -19 0 -31 27 -20 36 -92
37 -271 0 -201 2 -206 87 -206 98 0 124 -37 50 -70 -63 -28 -154 -50 -207 -50
-26 0 -68 -7 -94 -16 -41 -14 -54 -15 -88 -3 -26 8 -45 9 -55 3 -24 -15 -16
-28 25 -39 45 -12 127 -76 148 -117 12 -22 12 -37 3 -75 -6 -27 -16 -58 -22
-71 -8 -17 -8 -28 1 -42 19 -31 14 -59 -12 -71 -37 -17 -74 -3 -98 37 l-21 36
-15 -28 c-8 -16 -20 -32 -26 -36 -6 -4 -11 -15 -12 -25 -1 -10 -2 -26 -3 -35
0 -10 -19 -27 -41 -38 -23 -12 -43 -29 -46 -38 -7 -23 -42 -93 -57 -114 -17
-25 -3 -32 44 -22 41 9 42 11 63 76 28 86 48 108 98 108 51 0 94 -23 113 -60
21 -41 19 -52 -17 -81 -27 -22 -32 -33 -31 -65 2 -71 -3 -80 -72 -118 -36 -20
-74 -36 -85 -36 -10 0 -32 -11 -47 -24 -22 -19 -25 -27 -16 -37 10 -10 21 -10
53 0 28 8 46 9 59 1 29 -15 49 -12 68 10 24 27 39 25 55 -7 7 -15 22 -29 33
-31 11 -2 27 -6 35 -9 8 -4 38 -7 65 -8 28 -1 77 -9 110 -19 81 -24 127 -15
209 39 37 25 76 45 88 45 22 0 68 -36 68 -53 0 -12 90 -117 101 -117 5 0 12
14 16 30 14 71 38 33 55 -85 6 -48 19 -84 39 -116 16 -25 29 -53 29 -62 0 -19
38 -94 51 -103 16 -10 10 -49 -11 -67 -24 -20 -25 -35 -5 -61 21 -28 19 -63
-5 -76 -17 -9 -23 -6 -40 22 -11 18 -20 39 -20 46 0 6 -4 12 -9 12 -5 0 -7
-26 -4 -58 4 -47 1 -66 -16 -101 -28 -54 -24 -80 14 -101 36 -20 45 -72 21
-119 -19 -36 -21 -90 -4 -125 10 -23 7 -32 -22 -78 -18 -29 -38 -74 -46 -101
-21 -79 -84 -172 -84 -124 0 21 -37 50 -55 44 -12 -5 -15 -24 -15 -89 0 -59
-5 -93 -18 -117 -19 -39 -72 -71 -116 -71 -33 0 -91 33 -100 56 -5 14 -19 16
-86 12 -69 -4 -84 -8 -108 -30 -39 -37 -107 -69 -129 -61 -10 3 -29 15 -42 25
-13 10 -36 18 -51 18 -36 0 -49 17 -56 76 -13 118 -11 114 -52 114 -45 0 -52
5 -82 55 -42 72 -57 84 -90 72 -24 -9 -40 -7 -80 7 -80 29 -107 0 -54 -56 l27
-27 -27 -12 c-35 -16 -92 -119 -100 -181 -4 -26 -11 -50 -16 -53 -12 -8 -124
30 -185 62 -67 36 -145 94 -145 109 0 27 -70 155 -108 201 -23 26 -58 82 -78
123 -20 41 -47 89 -59 105 -37 50 -80 208 -80 297 0 42 -3 80 -7 84 -4 3 -26
10 -48 14 -38 7 -42 6 -51 -17 -7 -18 -13 -22 -22 -15 -6 5 -32 12 -56 15 -75
9 -128 85 -89 126 11 11 10 13 -2 9 -30 -9 -40 -50 -34 -138 3 -47 12 -108 20
-137 8 -28 14 -60 14 -72 0 -11 9 -28 19 -38 10 -10 32 -43 49 -73 16 -30 39
-71 51 -90 24 -40 28 -90 7 -90 -20 0 -35 22 -49 70 -7 25 -24 52 -39 63 -26
19 -29 20 -46 4 -26 -23 -34 -22 -70 16 -46 48 -64 107 -63 210 0 78 -9 110
-22 75 -7 -18 -25 33 -29 79 -3 36 -2 38 24 35 22 -2 30 4 44 29 13 27 14 38
4 74 -16 55 1 87 111 220 113 136 193 215 217 215 12 0 30 12 42 27 18 23 29
27 79 28 44 1 70 9 105 29 26 15 54 25 61 22 8 -3 23 -23 34 -44 16 -31 28
-41 60 -49 44 -12 51 -9 51 18 0 31 -21 65 -51 83 -35 21 -36 35 -4 70 14 15
28 39 31 54 4 15 15 41 24 57 56 94 69 126 54 132 -8 3 -27 0 -41 -6 -45 -21
-35 -5 37 60 40 35 106 97 148 136 51 49 79 70 86 63 12 -12 46 -13 46 -2 0 5
18 16 40 25 66 25 104 113 60 137 -23 12 -28 68 -8 88 7 7 42 12 87 12 91 0
117 12 85 38 -12 9 -42 29 -68 44 -77 46 -57 85 56 108 32 6 61 16 64 22 4 6
26 7 59 3 37 -4 63 -2 89 9 20 8 36 17 36 20 0 2 -14 11 -31 20 -29 14 -34 14
-69 -4 -42 -22 -58 -14 -35 16 8 10 15 27 15 37 0 10 18 37 41 60 22 23 47 55
55 70 25 46 35 134 22 186 -6 25 -10 71 -9 102 1 40 -3 60 -14 69 -28 23 -15
30 54 30 51 0 83 -6 123 -24z m246 -4 c4 -23 -13 -52 -29 -52 -5 0 -9 18 -9
41 0 33 3 40 18 37 9 -2 18 -14 20 -26z m505 -640 c39 -35 10 -72 -57 -72 -44
0 -118 37 -114 57 8 38 132 49 171 15z m93 -216 c3 -8 18 -20 34 -26 48 -20
132 -192 88 -178 -39 13 -172 218 -141 218 7 0 16 -6 19 -14z m-806 -376 c27
-27 25 -56 -5 -86 -24 -24 -28 -25 -48 -11 -22 14 -35 72 -23 103 8 21 53 17
76 -6z m650 -15 c10 -12 10 -19 2 -27 -16 -16 -42 -2 -42 22 0 24 22 26 40 5z
m-302 -79 c4 -52 -13 -69 -39 -37 -22 27 -24 52 -7 69 23 23 43 9 46 -32z
m-254 -82 c11 -30 6 -90 -10 -112 -9 -13 -13 -26 -9 -30 4 -4 10 -1 12 6 7 18
48 14 67 -7 17 -19 16 -19 -46 -24 -35 -3 -79 -9 -99 -12 -22 -4 -39 -3 -43 3
-3 6 12 39 34 74 22 35 40 70 40 79 0 34 43 52 54 23z m-1205 -39 c-24 -34
-39 -44 -39 -25 0 6 3 10 8 10 4 0 16 13 27 29 11 17 21 28 24 26 2 -3 -7 -20
-20 -40z m2305 -30 c0 -5 -12 -17 -27 -25 -24 -13 -28 -13 -43 2 -9 9 -13 21
-9 28 8 13 80 9 79 -5z m-536 -27 c3 -28 3 -28 -53 -28 -58 0 -74 12 -61 46 4
11 18 14 58 12 49 -3 53 -5 56 -30z m292 -23 c0 -29 -29 -35 -50 -10 -16 19
-4 35 26 35 19 0 24 -5 24 -25z m-73 -154 c22 -22 45 -58 51 -79 10 -33 20
-44 60 -62 26 -12 56 -30 67 -40 11 -10 38 -27 59 -39 34 -17 42 -19 55 -7 46
39 60 40 198 10 24 -5 93 -60 93 -74 0 -5 -9 -12 -20 -15 -11 -3 -20 -13 -20
-20 0 -22 169 -182 215 -204 22 -11 59 -24 82 -30 51 -14 59 -34 37 -91 -16
-40 -18 -42 -26 -20 -12 32 -38 49 -75 50 -43 0 -66 -41 -61 -113 2 -43 0 -52
-15 -55 -27 -5 -47 17 -47 52 0 18 -5 37 -12 44 -18 18 -162 16 -198 -3 -26
-14 -30 -21 -30 -60 0 -38 -5 -48 -34 -71 -30 -24 -33 -32 -29 -61 4 -20 1
-33 -5 -33 -6 0 -12 12 -14 27 -2 19 -12 32 -31 41 -25 12 -33 10 -84 -15 -31
-15 -61 -35 -66 -44 -16 -25 9 -74 55 -111 33 -25 49 -31 91 -32 44 0 52 2 49
17 -2 12 4 17 19 17 14 0 19 -5 16 -14 -8 -20 12 -34 53 -38 29 -2 35 -7 38
-30 6 -52 -62 -148 -127 -181 -21 -10 -32 -12 -40 -4 -7 7 -18 7 -36 -3 -27
-15 -34 -50 -10 -50 8 0 15 -7 15 -16 0 -12 -6 -15 -24 -10 -20 5 -26 1 -34
-22 -15 -43 -65 -92 -94 -92 -29 0 -66 38 -96 101 -12 25 -22 49 -22 53 0 3
-16 29 -35 57 -39 57 -40 61 -20 142 16 68 29 87 60 87 29 0 51 26 59 71 5 27
14 39 40 51 20 10 38 29 46 50 8 18 33 54 57 80 38 41 43 53 43 93 0 66 13 85
57 85 19 0 65 5 102 11 36 6 81 13 99 15 18 3 36 12 39 20 12 31 -12 35 -107
18 -97 -16 -222 -12 -247 8 -7 6 -13 23 -13 38 0 31 40 70 71 70 11 0 19 5 19
10 0 6 -13 10 -29 10 -16 0 -45 7 -64 15 -20 8 -51 15 -70 15 -49 0 -56 13
-50 91 7 79 -11 119 -51 119 -43 0 -136 82 -136 120 0 18 61 90 76 90 7 0 29
-18 51 -39z m696 -71 c60 -41 79 -49 103 -44 37 7 62 -18 124 -123 39 -67 50
-78 87 -90 40 -14 133 -99 133 -123 0 -6 -11 -15 -25 -22 -18 -8 -26 -21 -31
-55 -4 -27 -13 -47 -25 -53 -19 -11 -22 -8 -49 45 -15 31 -40 37 -86 22 -27
-9 -50 9 -69 56 l-16 39 54 -7 c72 -9 82 8 19 29 -27 9 -60 28 -72 41 -13 14
-42 30 -64 36 -60 16 -69 26 -61 74 5 36 1 48 -27 91 -32 47 -47 56 -111 69
-26 5 -51 40 -40 58 2 4 22 7 43 7 31 0 56 -11 113 -50z m-658 -581 c8 -25
-11 -59 -34 -59 -14 0 -20 10 -25 46 -3 25 -3 50 0 55 7 12 52 -19 59 -42z
m1148 19 c4 -13 -21 -156 -37 -208 -5 -14 -21 -45 -36 -70 -15 -25 -36 -67
-46 -95 -22 -61 -53 -115 -65 -115 -12 0 -11 130 1 195 5 28 14 88 20 134 13
100 22 121 56 121 13 0 35 11 47 24 24 26 52 33 60 14z m-657 -273 c6 -24 0
-44 -10 -34 -11 11 -17 59 -7 59 6 0 13 -11 17 -25z m-659 -502 c6 -16 -42
-46 -64 -41 -16 3 -15 7 10 31 27 28 47 31 54 10z m913 -14 c0 -16 -57 -69
-74 -69 -24 0 -20 11 19 53 32 35 55 41 55 16z m-3010 -75 c0 -14 -6 -24 -14
-24 -16 0 -27 35 -19 56 8 22 33 -3 33 -32z m884 24 c31 -43 15 -48 -71 -21
-61 19 -67 30 -20 36 67 8 76 7 91 -15z m-118 -104 c30 -26 57 -58 61 -73 3
-14 21 -49 39 -78 18 -28 30 -54 27 -57 -18 -18 -67 -4 -92 26 -14 17 -43 47
-63 67 -32 32 -37 45 -44 99 -8 77 -1 78 72 16z m-728 6 c12 -16 22 -37 22
-47 0 -14 -9 -9 -35 19 -19 20 -35 41 -35 47 0 21 27 11 48 -19z m1947 -30 c8
-26 -1 -40 -26 -40 -35 0 -23 55 13 59 4 1 9 -8 13 -19z m-437 -62 c30 -30 -6
-108 -51 -108 -26 0 -95 39 -102 58 -3 8 0 21 6 28 24 29 125 44 147 22z
m-1101 -129 c30 -11 73 -47 73 -61 0 -16 -37 -7 -78 19 -60 39 -57 66 5 42z
m848 -9 c12 -20 -15 -50 -45 -50 -40 0 -45 15 -14 39 29 23 49 27 59 11z m905
-295 c-7 -9 -15 -13 -18 -10 -3 2 1 11 8 20 7 9 15 13 18 10 3 -2 -1 -11 -8
-20z m-1182 -103 c29 -20 60 -41 69 -47 9 -5 24 -17 33 -25 108 -95 97 -103
-38 -26 -73 42 -108 56 -137 56 l-39 0 34 -35 c54 -55 101 -79 242 -124 20 -6
73 -16 119 -21 86 -10 116 -23 89 -40 -8 -6 -22 -7 -29 -4 -8 2 -56 9 -105 14
-50 5 -122 19 -161 30 -38 11 -90 24 -115 29 -25 5 -58 14 -73 20 -16 6 -40
11 -55 11 -35 1 -103 48 -121 84 -16 35 -4 89 22 94 10 2 41 -8 69 -22 29 -14
61 -26 72 -26 18 0 18 1 3 18 -22 24 -21 38 1 51 25 16 60 5 120 -37z m1152
-41 c0 -31 -45 -74 -103 -99 -42 -18 -44 -15 -11 21 17 17 43 49 58 70 33 45
56 49 56 8z"/>
<path d="M1405 6709 c-4 -5 1 -19 11 -30 24 -26 22 -74 -4 -102 -12 -13 -22
-29 -22 -35 0 -17 25 -15 40 3 7 8 21 15 32 15 27 0 77 31 84 52 13 43 -48
101 -91 84 -9 -3 -18 1 -21 9 -7 18 -20 19 -29 4z"/>
<path d="M2514 6470 c0 -97 2 -110 17 -110 9 0 21 6 26 13 18 24 55 127 51
143 -3 19 -42 49 -73 58 -19 5 -20 1 -21 -104z"/>
<path d="M1254 6324 c4 -11 10 -32 13 -49 6 -25 7 -27 14 -10 13 35 10 54 -13
66 -19 10 -20 9 -14 -7z"/>
<path d="M1281 6165 c0 -5 6 -21 14 -35 l14 -25 1 28 c0 16 -4 26 -9 23 -5 -4
-12 0 -14 6 -3 7 -6 9 -6 3z"/>
<path d="M1855 3670 c-18 -20 -17 -20 23 -20 35 0 42 3 42 20 0 14 -7 20 -23
20 -13 0 -32 -9 -42 -20z"/>
<path d="M1165 3035 c-29 -15 -66 -60 -81 -99 -6 -16 -4 -17 17 -10 13 4 38 8
54 9 49 0 45 -33 -12 -86 -26 -25 -57 -51 -69 -59 -11 -8 -26 -25 -32 -37 -11
-20 -10 -21 31 -16 23 3 50 10 60 15 10 5 37 6 60 3 85 -13 211 23 224 62 7
20 -48 47 -99 49 -27 1 -51 4 -55 7 -3 4 6 22 21 41 14 19 27 45 28 58 3 21
-2 23 -45 26 -40 3 -49 7 -57 28 -11 28 -7 27 -45 9z"/>
<path d="M1496 3024 c-9 -24 -9 -24 39 -24 32 0 45 4 45 14 0 28 -74 37 -84
10z"/>
<path d="M1310 2655 c-46 -27 -159 -75 -175 -75 -9 0 -38 11 -65 25 -57 29
-70 31 -70 10 0 -53 60 -105 122 -105 49 0 160 29 178 45 9 8 41 23 71 33 40
14 55 24 57 40 6 38 -70 55 -118 27z"/>
<path d="M1444 2372 c-6 -4 -13 -15 -17 -24 -5 -14 1 -17 31 -20 35 -3 37 -5
42 -43 l5 -40 13 32 c13 30 12 34 -15 67 -28 36 -39 42 -59 28z"/>
<path d="M636 2303 c-18 -29 -23 -47 -19 -75 3 -22 11 -38 18 -38 15 0 129
120 121 127 -3 3 -19 0 -36 -6 -28 -9 -33 -8 -37 9 -8 29 -20 25 -47 -17z"/>
<path d="M2552 2278 c8 -74 96 -248 126 -248 24 0 13 61 -18 99 -16 21 -37 60
-46 87 -9 27 -28 63 -42 79 l-25 30 5 -47z"/>
<path d="M575 2161 c-17 -10 -39 -28 -49 -40 -23 -25 -34 -26 -57 -5 -31 28
-45 12 -44 -49 0 -48 4 -58 28 -77 15 -12 27 -28 27 -36 0 -8 5 -14 11 -14 8
0 10 13 6 37 -6 34 -3 42 32 78 37 38 86 113 79 121 -2 2 -17 -5 -33 -15z"/>
<path d="M1379 2160 c-14 -10 -38 -40 -54 -65 -21 -33 -35 -45 -53 -45 -36 0
-61 -17 -134 -91 -65 -64 -68 -69 -68 -115 0 -50 13 -78 58 -125 13 -13 32
-40 42 -60 22 -42 35 -49 95 -49 34 0 47 -5 55 -19 15 -29 12 -50 -4 -28 -19
24 -53 8 -62 -30 -12 -45 41 -70 78 -37 16 16 18 15 24 -2 3 -11 13 -36 21
-56 9 -20 13 -46 10 -58 -4 -17 0 -20 24 -20 16 0 46 -7 66 -15 45 -19 53 -19
53 0 0 8 -7 15 -15 15 -23 0 -18 24 11 51 23 22 25 29 20 84 -2 33 -8 76 -11
96 -6 34 -4 39 30 65 33 25 37 32 32 63 -5 38 -19 76 -39 103 -9 13 -10 30 -2
67 6 29 7 57 2 66 -15 25 -44 18 -58 -15 -18 -44 -36 -56 -64 -41 -37 20 -60
10 -74 -34 -19 -57 -28 -65 -62 -54 -41 15 -43 32 -11 92 15 29 36 74 46 100
17 45 45 64 45 31 0 -9 7 -14 17 -12 20 4 45 78 41 123 -4 36 -24 42 -59 15z
m-137 -192 c3 -7 -6 -34 -19 -59 -13 -26 -23 -64 -23 -85 0 -22 -5 -46 -10
-54 -9 -13 -13 -11 -30 10 -40 51 -14 176 40 191 37 10 38 10 42 -3z"/>
<path d="M3158 1448 c9 -9 15 -9 24 0 9 9 7 12 -12 12 -19 0 -21 -3 -12 -12z"/>
<path d="M1850 4898 c0 -26 17 -40 39 -33 25 8 28 30 5 39 -25 10 -44 7 -44
-6z"/>
<path d="M1987 4863 c-10 -10 -8 -43 2 -43 9 0 21 24 21 41 0 11 -14 12 -23 2z"/>
</g>
</svg>
