<?xml version="1.0" encoding="UTF-8" standalone="no"?>
<!-- Created with Inkscape (http://www.inkscape.org/) -->

<svg
   xmlns:dc="http://purl.org/dc/elements/1.1/"
   xmlns:cc="http://creativecommons.org/ns#"
   xmlns:rdf="http://www.w3.org/1999/02/22-rdf-syntax-ns#"
   xmlns:svg="http://www.w3.org/2000/svg"
   xmlns="http://www.w3.org/2000/svg"
   xmlns:sodipodi="http://sodipodi.sourceforge.net/DTD/sodipodi-0.dtd"
   xmlns:inkscape="http://www.inkscape.org/namespaces/inkscape"
   width="57mm"
   height="131mm"
   viewBox="0 0 57 131"
   version="1.1"
   id="svg8"
   sodipodi:docname="im10.svg"
   inkscape:version="0.92.4 (5da689c313, 2019-01-14)">
  <defs
     id="defs2" />
  <sodipodi:namedview
     id="base"
     pagecolor="#ffffff"
     bordercolor="#666666"
     borderopacity="1.0"
     inkscape:pageopacity="0"
     inkscape:pageshadow="2"
     inkscape:zoom="0.98994949"
     inkscape:cx="-300.1562"
     inkscape:cy="385.6237"
     inkscape:document-units="mm"
     inkscape:current-layer="text4555"
     showgrid="false"
     inkscape:window-width="1920"
     inkscape:window-height="1017"
     inkscape:window-x="1072"
     inkscape:window-y="482"
     inkscape:window-maximized="1"
     inkscape:pagecheckerboard="true" />
  <metadata
     id="metadata5">
    <rdf:RDF>
      <cc:Work
         rdf:about="">
        <dc:format>image/svg+xml</dc:format>
        <dc:type
           rdf:resource="http://purl.org/dc/dcmitype/StillImage" />
        <dc:title />
      </cc:Work>
    </rdf:RDF>
  </metadata>
  <g
     inkscape:label="Layer 1"
     inkscape:groupmode="layer"
     id="layer1"
     transform="translate(-1.5119048,-116.48512)">
    <g
       aria-label="шка"
       inkscape:transform-center-x="7.4835468"
       inkscape:transform-center-y="7.4835487"
       style="font-style:normal;font-variant:normal;font-weight:normal;font-stretch:normal;font-size:59.97222137px;line-height:1.25;font-family:SimSun;-inkscape-font-specification:'SimSun, Normal';font-variant-ligatures:normal;font-variant-caps:normal;font-variant-numeric:normal;font-feature-settings:normal;text-align:start;letter-spacing:0px;word-spacing:0px;writing-mode:lr-tb;text-anchor:start;fill:#ffffff;fill-opacity:1;stroke:none;stroke-width:0.26458332"
       id="text4555">
      <path
         d="m 47.092107,153.5476 q 2.342665,-4.9196 3.748264,-8.90213 1.405599,-4.2168 1.874132,-7.49653 l 4.919596,2.57693 q -1.639865,0.23427 -3.98253,6.55947 -2.576931,6.32519 -5.388129,11.47905 2.576931,6.09093 5.153863,7.96506 l 3.513997,-8.66786 0.937066,0.23427 q -1.639866,5.38813 -1.639866,9.13639 0,3.514 1.171333,5.85667 -3.748264,-1.17134 -6.793728,-4.45107 -3.045465,-3.27973 -4.451064,-7.26226 -4.685329,6.79373 -15.461588,11.47906 l -0.468533,-0.7028 q 8.902127,-5.15386 14.758789,-14.05599 -2.576931,-8.19933 -3.279731,-26.00358 H 29.990654 v 9.60493 h 6.090928 l 1.639866,-2.1084 3.513997,3.04546 -1.639865,1.17134 q 0,7.49652 -0.468533,12.65039 -0.234267,5.15386 -4.451064,6.79372 -0.234266,-2.81119 -4.919596,-4.21679 l 0.234267,-0.93707 q 3.045464,0.7028 4.451063,0.7028 1.405599,-0.23427 1.639865,-4.45106 0.468533,-4.2168 0.234267,-11.24479 h -6.325195 q 0.234266,10.54199 -2.342665,17.56998 -2.576932,7.028 -7.965061,12.65039 l -0.702799,-0.7028 q 6.325195,-9.13639 7.262261,-17.56998 1.171332,-8.4336 0.937066,-15.93012 -0.234267,-7.7308 -0.468533,-10.07346 l 3.279731,1.63986 h 11.479058 q 0,-7.02799 -0.468533,-12.18186 l 5.153862,2.57694 -1.639865,1.63986 v 7.96506 h 5.856662 l 3.045465,-3.04546 4.216796,4.45106 H 44.749442 q 0,11.01053 2.342665,22.25532 z m -0.468533,-34.67144 q 5.38813,1.87413 6.090929,3.27973 0.7028,1.17133 0.7028,2.1084 0,0.7028 -0.468533,1.63986 -0.468533,0.93707 -1.405599,0.93707 -0.937066,0 -1.405599,-2.1084 -0.468533,-2.1084 -3.982531,-4.9196 z m -38.1854375,0.93706 0.468533,-0.93706 q 5.3881295,2.34266 6.0909285,3.98253 0.7028,1.4056 0.7028,1.87413 0,1.4056 -1.874132,3.04546 h 3.748264 l 2.576931,-2.34266 3.748264,3.74826 H 9.140936 q -1.8741319,0 -4.4510633,0.7028 l -2.1083984,-2.1084 h 9.8391927 q -0.234267,-1.87413 -1.171333,-3.74826 -0.702799,-1.87413 -2.8111975,-4.2168 z m 0.2342665,33.26584 v 10.77626 h 9.136393 V 153.07906 Z M 4.9241392,135.27481 H 15.934664 l 2.342665,-2.1084 3.513997,3.514 H 11.483601 q -1.874132,0 -4.4510634,0.7028 z m 0,8.19933 H 16.168931 l 2.342665,-2.34267 3.513997,3.74827 H 11.483601 q -1.874132,0 -4.4510634,0.7028 z m 0.468533,6.32519 3.7482638,1.87414 h 7.965061 l 1.874132,-2.1084 3.748263,3.04546 -1.874132,1.4056 q 0,9.13639 0.234267,13.11892 l -3.279731,1.63987 v -3.514 H 8.672403 v 3.514 l -3.2797308,1.4056 q 0.2342665,-4.2168 0.2342665,-10.30773 0,-6.09093 -0.2342665,-10.07346 z"
         id="path3714"
         inkscape:connector-curvature="0" />
    </g>
  </g>
</svg>
