<?xml version="1.0" encoding="UTF-8" standalone="no"?>
<!-- Created with Inkscape (http://www.inkscape.org/) -->

<svg
   xmlns:dc="http://purl.org/dc/elements/1.1/"
   xmlns:cc="http://creativecommons.org/ns#"
   xmlns:rdf="http://www.w3.org/1999/02/22-rdf-syntax-ns#"
   xmlns:svg="http://www.w3.org/2000/svg"
   xmlns="http://www.w3.org/2000/svg"
   xmlns:sodipodi="http://sodipodi.sourceforge.net/DTD/sodipodi-0.dtd"
   xmlns:inkscape="http://www.inkscape.org/namespaces/inkscape"
   width="57mm"
   height="131mm"
   viewBox="0 0 57 131"
   version="1.1"
   id="svg8"
   sodipodi:docname="im3.svg"
   inkscape:version="0.92.4 (5da689c313, 2019-01-14)">
  <defs
     id="defs2" />
  <sodipodi:namedview
     id="base"
     pagecolor="#000000"
     bordercolor="#666666"
     borderopacity="1.0"
     inkscape:pageopacity="0"
     inkscape:pageshadow="2"
     inkscape:zoom="0.98994949"
     inkscape:cx="-300.1562"
     inkscape:cy="385.6237"
     inkscape:document-units="mm"
     inkscape:current-layer="layer1"
     showgrid="false"
     inkscape:window-width="1920"
     inkscape:window-height="1017"
     inkscape:window-x="1072"
     inkscape:window-y="482"
     inkscape:window-maximized="1" />
  <metadata
     id="metadata5">
    <rdf:RDF>
      <cc:Work
         rdf:about="">
        <dc:format>image/svg+xml</dc:format>
        <dc:type
           rdf:resource="http://purl.org/dc/dcmitype/StillImage" />
        <dc:title />
      </cc:Work>
    </rdf:RDF>
  </metadata>
  <g
     inkscape:label="Layer 1"
     inkscape:groupmode="layer"
     id="layer1"
     transform="translate(-1.5119048,-116.48512)">
    <g
       aria-label="名
誉"
       inkscape:transform-center-x="7.4835468"
       inkscape:transform-center-y="7.4835487"
       style="font-style:normal;font-variant:normal;font-weight:normal;font-stretch:normal;font-size:59.97222137px;line-height:1.25;font-family:SimSun;-inkscape-font-specification:'SimSun, Normal';font-variant-ligatures:normal;font-variant-caps:normal;font-variant-numeric:normal;font-feature-settings:normal;text-align:start;letter-spacing:0px;word-spacing:0px;writing-mode:lr-tb;text-anchor:start;fill:#ffffff;fill-opacity:1;stroke:none;stroke-width:0.26458332"
       id="text4555">
      <path
         d="m 48.563712,128.61631 q -5.388129,7.7308 -11.244791,12.88466 -5.622396,4.9196 -11.010525,8.4336 h 20.849717 l 1.874132,-2.34267 3.748264,3.04546 -1.874132,1.4056 v 8.90213 q 0,3.514 0.234267,7.49653 l -3.513998,1.87413 v -3.514 H 24.199997 v 2.8112 l -3.513997,1.4056 q 0.234267,-8.19933 0.234267,-10.77626 v -7.26226 q -8.199328,4.45106 -17.1014542,6.55946 l -0.2342665,-0.7028 q 10.0734587,-3.74826 17.3357207,-8.90212 v -2.34267 l 2.576931,0.93707 q 5.388129,-3.74827 11.244791,-9.1364 5.856663,-5.62239 9.839193,-11.71332 H 24.199997 Q 16.70347,137.75271 8.2698761,142.6723 l -0.7027995,-0.7028 q 5.3881294,-3.98253 10.3077254,-10.77625 5.153863,-6.79373 7.496528,-14.05599 l 5.153863,3.74826 -2.576932,0.93707 q -1.874132,2.81119 -3.045464,4.45106 h 19.678385 l 2.108398,-2.57693 4.451064,3.514 z m -29.283311,4.45107 q 7.730794,3.27973 8.199327,5.38813 0.468533,1.87413 -0.468533,3.04546 -0.702799,1.17133 -1.405599,1.17133 -0.702799,0 -1.171332,-1.63986 -1.171333,-2.57693 -5.856662,-7.26226 z m 4.919596,18.27278 v 14.05599 h 23.426649 v -14.05599 z"
         id="path3713"
         inkscape:connector-curvature="0" />
      <path
         d="m 13.189472,193.97667 q 4.216797,2.81119 5.856663,4.45106 1.639865,1.4056 1.171332,3.27973 -0.234266,1.87413 -0.937066,2.34266 -0.702799,0.46854 -1.171332,0.46854 -0.937066,0 -1.405599,-2.34267 -0.7028,-2.8112 -4.216797,-7.73079 z m 12.181858,-0.93707 0.468533,-0.46853 q 3.748264,2.57693 5.153863,3.98253 1.639865,1.4056 1.639865,3.27973 0,1.87413 -0.937066,2.57693 -0.937066,0.7028 -1.171332,0.7028 -0.937066,0 -1.405599,-2.8112 -0.937066,-3.27973 -3.748264,-7.26226 z m 18.272786,-0.7028 4.68533,3.04546 -1.639866,1.17134 q -3.748263,4.91959 -7.262261,9.37066 h 9.839193 l 3.748264,-3.04547 3.98253,4.45107 H 37.553187 q 7.965061,11.01052 20.146918,13.82172 v 0.7028 q -3.513997,0.7028 -4.216796,3.04546 Q 42.70705,219.27745 36.147588,207.32986 H 24.66853 q -7.730794,12.88465 -21.5525167,18.97558 l -0.468533,-0.93706 Q 14.595071,218.57465 20.686,207.32986 H 10.612541 q -1.8741319,0 -4.4510633,0.70279 L 4.0530793,205.92426 H 38.02172 q 1.874132,-3.27973 3.513998,-7.49653 1.874132,-4.45106 2.108398,-6.09093 z m -16.867187,16.63292 q 5.856662,3.04547 6.090929,4.68533 0.468532,1.63987 -0.468533,2.8112 -0.937066,1.17133 -1.171333,1.17133 -0.702799,0 -1.171332,-1.87413 -0.937066,-2.8112 -3.748264,-6.3252 z m -11.713325,9.37066 h 23.192383 l 2.811198,-2.1084 3.98253,3.514 H 21.154533 q -1.405599,0 -3.98253,0.7028 z m 1.171333,5.6224 h 21.552517 l 3.045464,-2.57694 3.748264,3.98254 H 22.794398 q -1.874131,0 -4.451063,0.70279 z m 0.234266,5.38813 h 22.02105 l 2.811198,-2.34267 3.748264,3.74826 h -22.02105 q -1.874132,0 -4.451063,0.7028 z m 3.513998,6.32519 v 6.55946 h 21.31825 v -6.55946 z m -3.279731,-3.04546 3.279731,1.63986 h 20.849717 l 1.639866,-2.1084 3.513997,2.57693 -1.639865,1.4056 q 0,5.38813 0.234266,9.37066 l -3.279731,1.4056 v -3.27973 h -21.31825 v 2.34267 l -3.279731,1.4056 q 0.234266,-4.45107 0.234266,-8.4336 0,-3.98253 -0.234266,-6.32519 z"
         id="path3715"
         inkscape:connector-curvature="0" />
    </g>
  </g>
</svg>
