<?xml version="1.0" encoding="UTF-8" standalone="no"?>
<!-- Created with Inkscape (http://www.inkscape.org/) -->

<svg
   xmlns:dc="http://purl.org/dc/elements/1.1/"
   xmlns:cc="http://creativecommons.org/ns#"
   xmlns:rdf="http://www.w3.org/1999/02/22-rdf-syntax-ns#"
   xmlns:svg="http://www.w3.org/2000/svg"
   xmlns="http://www.w3.org/2000/svg"
   xmlns:sodipodi="http://sodipodi.sourceforge.net/DTD/sodipodi-0.dtd"
   xmlns:inkscape="http://www.inkscape.org/namespaces/inkscape"
   width="57mm"
   height="131mm"
   viewBox="0 0 57 131"
   version="1.1"
   id="svg8"
   sodipodi:docname="im6.svg"
   inkscape:version="0.92.4 (5da689c313, 2019-01-14)">
  <defs
     id="defs2" />
  <sodipodi:namedview
     id="base"
     pagecolor="#ffffff"
     bordercolor="#666666"
     borderopacity="1.0"
     inkscape:pageopacity="0"
     inkscape:pageshadow="2"
     inkscape:zoom="0.98994949"
     inkscape:cx="-300.1562"
     inkscape:cy="385.6237"
     inkscape:document-units="mm"
     inkscape:current-layer="layer1"
     showgrid="false"
     inkscape:window-width="1920"
     inkscape:window-height="1017"
     inkscape:window-x="1072"
     inkscape:window-y="482"
     inkscape:window-maximized="1" />
  <metadata
     id="metadata5">
    <rdf:RDF>
      <cc:Work
         rdf:about="">
        <dc:format>image/svg+xml</dc:format>
        <dc:type
           rdf:resource="http://purl.org/dc/dcmitype/StillImage" />
        <dc:title />
      </cc:Work>
    </rdf:RDF>
  </metadata>
  <g
     inkscape:label="Layer 1"
     inkscape:groupmode="layer"
     id="layer1"
     transform="translate(-1.5119048,-116.48512)">
    <g
       aria-label="忠
義"
       inkscape:transform-center-x="7.4835468"
       inkscape:transform-center-y="7.4835487"
       style="font-style:normal;font-variant:normal;font-weight:normal;font-stretch:normal;font-size:59.97222137px;line-height:1.25;font-family:SimSun;-inkscape-font-specification:'SimSun, Normal';font-variant-ligatures:normal;font-variant-caps:normal;font-variant-numeric:normal;font-feature-settings:normal;text-align:start;letter-spacing:0px;word-spacing:0px;writing-mode:lr-tb;text-anchor:start;fill:#ffffff;fill-opacity:1;stroke:none;stroke-width:0.26458332"
       id="text4555">
      <path
         d="m 17.541527,162.55196 q 0,-8.90212 -0.234267,-13.58745 l 5.388129,2.57693 -1.874132,1.63987 v 8.90212 q -0.468533,3.514 3.045465,3.04547 h 15.930121 q 2.576931,0.46853 3.045464,-2.8112 0.7028,-3.514 0.937066,-6.79373 h 0.937066 q 0.234267,2.8112 0.468533,5.38813 0.234267,2.57693 2.811198,3.74826 -1.874132,3.04547 -5.856662,3.27973 H 21.758323 q -4.685329,0 -4.216796,-5.38813 z m 7.027994,-15.46158 0.234267,-0.7028 q 6.090928,2.34266 7.96506,3.98253 2.108399,1.4056 1.874132,3.27973 -0.234266,1.87413 -0.937066,2.8112 -0.702799,0.7028 -1.171332,0.7028 -0.937066,0 -1.874132,-2.34267 -1.405599,-3.27973 -6.090929,-7.73079 z m 21.083984,4.45106 0.468533,-0.7028 q 5.622396,3.04546 7.496528,5.15386 2.108398,1.87413 1.639865,3.74827 -0.234266,1.87413 -0.937066,2.81119 -0.702799,0.7028 -1.171332,0.7028 -0.702799,0 -1.405599,-1.63986 -0.937066,-2.57693 -2.342665,-4.68533 -1.171332,-2.1084 -3.748264,-5.38813 z m -34.67144,-0.7028 h 0.937066 q -0.468533,6.55946 -1.639866,9.60493 -0.9370656,3.04546 -3.2797305,3.27973 -2.3426649,0 -3.0454643,-0.93707 -0.7027995,-0.93706 2.1083984,-3.514 2.5769313,-2.34266 4.9195964,-8.43359 z m 16.867187,-3.514 q 0.234267,-2.8112 0.234267,-7.02799 H 14.261796 v 2.8112 l -3.513998,1.40559 q 0.234267,-4.68532 0.234267,-11.01052 0,-6.55946 -0.234267,-9.60493 l 3.513998,2.1084 h 13.821723 q 0,-4.68533 -0.234267,-8.90212 l 5.388129,2.34266 -1.874132,1.63987 v 4.91959 h 13.587457 l 1.874132,-2.57693 3.748264,3.04547 -1.874132,1.63986 q 0,10.77626 0.234266,14.29026 l -3.513997,1.4056 v -3.514 h -14.05599 q 0,3.514 0.234267,5.62239 z M 14.261796,127.41199 v 11.47906 h 13.821723 v -11.47906 z m 17.101453,0 v 11.47906 h 14.05599 v -11.47906 z"
         id="path3713"
         inkscape:connector-curvature="0" />
      <path
         d="m 21.99259,232.36338 8.902126,-1.4056 0.234267,0.93707 q -2.342665,0.46853 -9.136393,2.10839 v 7.7308 q 0,2.8112 -0.937066,3.514 -0.937066,0.7028 -3.748264,1.63986 -0.234266,-2.57693 -6.325195,-4.2168 v -0.93706 q 4.216797,0.46853 6.090929,0.46853 2.108398,0.23427 2.108398,-1.63986 v -5.85667 q -4.216797,0.93707 -7.496528,1.87414 -3.2797305,0.93706 -4.6853295,2.10839 l -2.5769314,-4.21679 q 7.4965279,-0.46854 14.7587889,-1.63987 v -5.62239 h -8.66786 q -3.0454645,0 -5.6223959,0.7028 l -2.1083984,-2.1084 H 19.181392 v -5.15387 q -5.622396,0.7028 -11.7133245,0.93707 v -0.93707 q 7.4965275,-0.93706 13.1189235,-2.10839 5.622396,-1.4056 8.199327,-3.04547 l 3.279731,3.98253 q -3.748264,0 -10.073459,1.17133 v 5.15387 h 12.884657 q -0.7028,-4.9196 -1.405599,-11.24479 l 5.388129,2.57693 -1.639865,1.4056 q 0,2.81119 0.702799,7.26226 h 10.541992 l 3.279731,-3.27973 4.68533,4.68533 H 38.156978 q 0.937066,5.15386 2.811198,8.66786 3.748263,-2.8112 7.027994,-7.7308 l 3.982531,3.04547 q -2.108399,0.7028 -4.216797,2.81119 -2.342665,2.1084 -5.38813,4.45107 2.108399,2.1084 4.451064,3.04546 2.342665,0.93707 4.216797,1.17133 1.874132,0.23427 2.108398,-1.17133 0.234266,-1.63986 1.405599,-6.32519 h 0.937066 q -0.468533,4.91959 -0.234267,6.79372 0.234267,1.87414 1.171333,3.27974 0.702799,1.17133 -1.874132,1.17133 -2.576931,0 -7.262261,-1.4056 -4.451064,-1.4056 -7.496528,-4.9196 -5.622396,3.27973 -15.227322,5.6224 l -0.468533,-0.93707 q 8.902127,-2.8112 14.290256,-7.02799 -2.342665,-4.2168 -3.279731,-10.54199 H 21.99259 Z m 19.209852,-16.86719 q 3.98253,1.4056 5.622396,2.34267 1.874132,0.7028 2.108398,2.34266 0.468533,1.63987 -0.468533,2.57693 -0.702799,0.7028 -0.937066,0.7028 -0.937066,0 -1.639865,-1.63986 -1.405599,-2.1084 -5.153863,-5.6224 z M 28.083519,207.0626 h -9.839193 q -3.045464,0 -5.622396,0.7028 l -2.108398,-2.1084 h 17.569987 v -4.45106 h -13.35319 q -3.045465,0 -5.6223961,0.70279 L 6.9995345,199.80034 H 22.226856 q -1.171332,-3.74827 -4.451063,-7.49653 l 0.7028,-0.46853 q 4.685329,1.87413 5.622395,3.04546 0.937066,1.17133 0.937066,1.87413 0,1.4056 -1.639865,3.04547 H 34.64298 q 2.108399,-4.2168 3.279731,-8.19933 l 4.451063,2.8112 q -1.874131,0.46853 -3.27973,2.1084 -1.405599,1.40559 -3.045465,3.27973 h 8.433594 l 3.513997,-3.514 4.451064,4.9196 H 31.128983 v 4.45106 h 11.010525 l 3.045464,-2.8112 3.982531,4.2168 h -18.03852 v 4.91959 h 15.461588 l 3.513998,-3.51399 4.685329,4.91959 H 12.62193 q -3.0454641,0 -5.6223955,0.7028 l -2.1083984,-2.1084 H 28.083519 Z"
         id="path3715"
         inkscape:connector-curvature="0" />
    </g>
  </g>
</svg>
