<?xml version="1.0" encoding="UTF-8" standalone="no"?>
<!-- Created with Inkscape (http://www.inkscape.org/) -->

<svg
   xmlns:dc="http://purl.org/dc/elements/1.1/"
   xmlns:cc="http://creativecommons.org/ns#"
   xmlns:rdf="http://www.w3.org/1999/02/22-rdf-syntax-ns#"
   xmlns:svg="http://www.w3.org/2000/svg"
   xmlns="http://www.w3.org/2000/svg"
   xmlns:sodipodi="http://sodipodi.sourceforge.net/DTD/sodipodi-0.dtd"
   xmlns:inkscape="http://www.inkscape.org/namespaces/inkscape"
   width="57mm"
   height="131mm"
   viewBox="0 0 57 131"
   version="1.1"
   id="svg8"
   sodipodi:docname="im8.svg"
   inkscape:version="0.92.4 (5da689c313, 2019-01-14)">
  <defs
     id="defs2" />
  <sodipodi:namedview
     id="base"
     pagecolor="#ffffff"
     bordercolor="#666666"
     borderopacity="1.0"
     inkscape:pageopacity="0"
     inkscape:pageshadow="2"
     inkscape:zoom="0.98994949"
     inkscape:cx="-300.1562"
     inkscape:cy="385.6237"
     inkscape:document-units="mm"
     inkscape:current-layer="layer1"
     showgrid="false"
     inkscape:window-width="1920"
     inkscape:window-height="1017"
     inkscape:window-x="1072"
     inkscape:window-y="482"
     inkscape:window-maximized="1" />
  <metadata
     id="metadata5">
    <rdf:RDF>
      <cc:Work
         rdf:about="">
        <dc:format>image/svg+xml</dc:format>
        <dc:type
           rdf:resource="http://purl.org/dc/dcmitype/StillImage" />
        <dc:title />
      </cc:Work>
    </rdf:RDF>
  </metadata>
  <g
     inkscape:label="Layer 1"
     inkscape:groupmode="layer"
     id="layer1"
     transform="translate(-1.5119048,-116.48512)">
    <g
       aria-label="礼"
       inkscape:transform-center-x="7.4835468"
       inkscape:transform-center-y="7.4835487"
       style="font-style:normal;font-variant:normal;font-weight:normal;font-stretch:normal;font-size:59.97222137px;line-height:1.25;font-family:SimSun;-inkscape-font-specification:'SimSun, Normal';font-variant-ligatures:normal;font-variant-caps:normal;font-variant-numeric:normal;font-feature-settings:normal;text-align:start;letter-spacing:0px;word-spacing:0px;writing-mode:lr-tb;text-anchor:start;fill:#000000;fill-opacity:1;stroke:none;stroke-width:0.26458332"
       id="text4555">
      <path
         d="m 12.62193,119.31167 0.7028,-0.46853 q 4.919596,2.81119 5.856662,4.21679 1.171332,1.4056 1.171332,2.57693 0,1.4056 -0.937066,2.8112 -0.937065,1.17133 -1.405598,1.17133 -0.7028,0 -1.171333,-2.57693 -0.937066,-3.51399 -4.216797,-7.73079 z m 3.279731,52.94422 q 0.234267,-9.37065 0.234267,-26.00358 -5.38813,5.6224 -12.6503908,9.60493 l -0.468533,-0.7028 q 5.3881293,-3.98253 10.3077258,-9.60492 5.153863,-5.85667 8.433593,-12.18186 H 12.62193 q -3.0454641,0 -5.6223955,0.7028 l -2.1083984,-2.1084 H 21.99259 l 2.108398,-2.34267 3.748264,3.74827 -2.576931,1.17133 q -3.045465,4.2168 -5.856663,8.19933 v 1.4056 q 5.153863,1.87413 7.027995,3.51399 2.108399,1.63987 2.108399,3.27973 0,0.7028 -0.7028,2.1084 -0.468533,1.4056 -0.702799,1.4056 -0.937066,0 -1.874132,-2.34266 -1.874132,-3.74827 -5.856663,-6.79373 0,20.38118 0.234267,24.83225 z m 16.867187,-7.73079 q 0,-40.99663 -0.234266,-46.1505 l 5.622396,2.34267 -2.108399,1.87413 v 41.46517 q -0.234266,3.514 4.216797,3.27973 h 7.730794 q 3.513998,0 3.748264,-4.2168 0.234267,-4.2168 0.234267,-6.79373 h 1.171332 q 0,3.514 0.468533,6.79373 0.468533,3.04547 2.811198,3.514 -1.639866,3.98253 -8.433594,3.74826 h -9.370659 q -5.856663,0 -5.856663,-5.85666 z"
         id="path3714"
         inkscape:connector-curvature="0" />
    </g>
  </g>
</svg>
